<?xml version="1.0" standalone="no"?>
<!DOCTYPE svg PUBLIC "-//W3C//DTD SVG 20010904//EN"
 "http://www.w3.org/TR/2001/REC-SVG-20010904/DTD/svg10.dtd">
<svg version="1.0" xmlns="http://www.w3.org/2000/svg"
 width="550.000000pt" height="500.000000pt" viewBox="0 0 550.000000 500.000000"
 preserveAspectRatio="xMidYMid meet">

<g transform="translate(0.000000,500.000000) scale(0.100000,-0.100000)"
fill="#000000" stroke="none">
<path d="M2687 4077 c-115 -119 -194 -255 -239 -414 -18 -64 -22 -105 -23
-223 0 -124 2 -144 15 -141 8 2 53 13 100 24 l85 21 1 95 c1 117 21 199 75
310 48 98 47 98 105 -26 46 -98 64 -180 64 -299 0 -118 -23 -223 -71 -320 -36
-73 -37 -71 48 -164 33 -36 55 -52 65 -48 22 9 123 219 143 298 26 100 31 318
10 421 -33 167 -115 323 -236 453 l-77 81 -65 -68z"/>
<path d="M2635 3310 c-325 -43 -619 -263 -745 -558 -29 -68 -66 -199 -59 -207
3 -2 42 -14 89 -27 70 -19 110 -23 230 -23 161 0 252 19 378 76 52 23 192 106
192 113 0 0 -32 35 -71 77 l-71 77 -51 -34 c-97 -64 -232 -104 -349 -104 -43
0 -78 3 -78 6 0 4 20 37 45 75 122 183 326 301 558 324 66 7 68 7 83 43 8 20
23 63 31 95 14 51 15 60 2 68 -16 10 -99 10 -184 -1z"/>
<path d="M3094 3223 c-3 -16 -17 -62 -30 -103 -13 -41 -21 -76 -16 -78 4 -1
36 -19 71 -40 90 -53 172 -131 232 -220 l51 -77 -73 -3 c-210 -9 -464 128
-579 311 -32 51 -38 56 -70 57 -36 0 -141 -24 -166 -38 -11 -6 -3 -26 37 -90
126 -205 332 -360 564 -424 119 -32 346 -32 463 1 45 13 84 27 87 31 10 16
-30 141 -76 236 -92 193 -232 335 -426 433 l-63 31 -6 -27z"/>
<path d="M587 2043 c-4 -3 -7 -109 -7 -235 l0 -228 55 0 55 0 2 163 3 162 62
-160 61 -160 49 -3 48 -2 59 157 c33 87 63 163 68 168 6 6 8 -55 6 -158 l-3
-167 53 0 52 0 0 235 0 235 -85 0 c-99 0 -86 14 -145 -160 -24 -69 -46 -129
-51 -133 -4 -5 -12 8 -19 30 -7 21 -31 89 -52 151 l-40 112 -82 0 c-46 0 -86
-3 -89 -7z"/>
<path d="M1250 1815 l0 -235 175 0 175 0 0 55 0 55 -120 0 -120 0 0 35 0 35
120 0 120 0 0 55 0 55 -120 0 -120 0 0 30 0 29 118 3 117 3 3 58 3 57 -176 0
-175 0 0 -235z"/>
<path d="M1770 2037 c-59 -20 -70 -57 -70 -232 0 -228 14 -240 260 -233 84 2
144 9 158 17 36 20 52 70 52 166 l0 85 -110 0 -110 0 0 -45 0 -45 55 0 c52 0
55 -1 55 -25 0 -38 -30 -47 -136 -43 -71 2 -97 7 -104 18 -16 25 -12 206 4
219 9 8 51 11 122 9 104 -3 109 -4 112 -25 3 -21 9 -23 59 -23 l56 0 -6 56
c-7 65 -25 90 -76 104 -50 14 -278 12 -321 -3z"/>
<path d="M2444 2013 c-15 -35 -112 -278 -155 -385 l-19 -48 64 0 c61 0 64 1
71 27 12 50 20 53 140 53 l113 0 16 -40 16 -40 60 0 c33 0 60 2 60 5 0 11
-174 441 -183 453 -6 8 -37 12 -88 12 l-79 0 -16 -37z m142 -164 l32 -84 -39
-3 c-21 -2 -56 -2 -77 0 l-38 3 34 88 c19 48 39 86 45 84 6 -2 25 -41 43 -88z"/>
<path d="M2920 1991 l0 -60 108 -3 107 -3 -112 -118 -113 -118 0 -54 0 -55
210 0 210 0 0 55 0 55 -121 0 -121 0 117 124 116 125 -3 53 -3 53 -197 3 -198
2 0 -59z"/>
<path d="M3485 2036 c-17 -7 -36 -24 -42 -38 -17 -38 -26 -176 -18 -273 6 -76
11 -91 35 -118 l28 -32 164 -3 c250 -4 259 3 259 236 0 156 -5 185 -41 217
-20 18 -38 20 -189 22 -122 2 -174 -1 -196 -11z m298 -121 c28 -28 33 -164 6
-206 -12 -19 -222 -20 -241 -1 -9 9 -13 43 -13 103 0 116 3 119 136 119 72 0
101 -4 112 -15z"/>
<path d="M4017 2043 c-4 -3 -7 -109 -7 -235 l0 -228 55 0 55 0 1 173 1 172 84
-172 83 -173 91 0 90 0 0 236 0 235 -52 -3 -53 -3 -5 -169 -5 -169 -82 171
-82 172 -84 0 c-46 0 -87 -3 -90 -7z"/>
<path d="M4570 1815 l0 -235 175 0 175 0 0 55 0 55 -120 0 -120 0 0 35 0 35
120 0 120 0 0 55 0 55 -120 0 -120 0 0 30 0 29 118 3 117 3 0 55 0 55 -172 3
-173 2 0 -235z"/>
<path d="M653 1329 c-54 -16 -66 -53 -71 -209 -6 -225 13 -251 187 -258 222
-9 271 11 281 117 l6 61 -52 0 c-50 0 -53 -1 -56 -27 -2 -23 -10 -29 -43 -36
-63 -14 -187 -2 -202 19 -17 24 -18 184 0 207 15 21 105 32 181 23 49 -7 57
-11 62 -32 6 -23 10 -25 58 -22 l51 3 -4 45 c-8 107 -33 120 -228 119 -76 0
-153 -5 -170 -10z"/>
<path d="M1590 1105 l0 -235 175 0 175 0 0 55 0 55 -125 0 -125 0 0 180 0 180
-50 0 -50 0 0 -235z"/>
<path d="M2533 1330 c-47 -19 -58 -54 -61 -205 -4 -163 6 -217 45 -243 23 -14
52 -17 194 -17 122 0 173 4 192 14 43 23 52 61 52 231 0 170 -8 200 -61 220
-32 12 -331 12 -361 0z m301 -132 c21 -30 22 -166 2 -194 -13 -17 -27 -19
-119 -19 -136 0 -137 1 -137 116 0 117 2 119 135 119 96 0 105 -2 119 -22z"/>
<path d="M3492 1151 c3 -174 5 -192 24 -218 41 -55 78 -68 194 -68 85 0 113 4
145 20 67 34 75 61 75 273 l0 182 -54 0 -55 0 -3 -165 c-4 -198 -5 -200 -102
-200 -104 0 -106 4 -106 202 l0 163 -61 0 -61 0 4 -189z"/>
<path d="M4462 1103 l3 -238 193 0 194 0 28 32 c34 38 46 117 37 262 -10 178
-14 181 -272 181 l-185 0 2 -237z m332 95 c21 -29 22 -166 2 -193 -12 -16 -30
-20 -115 -23 l-101 -4 0 121 0 121 99 0 c92 0 101 -2 115 -22z"/>
</g>
</svg>
